<svg width="250" height="303" viewBox="0 0 250 303" fill="none" xmlns="http://www.w3.org/2000/svg">
<g clip-path="url(#clip0_27_6)">
<path d="M156.273 181.909C156.273 199.18 142.271 213.182 125 213.182C107.729 213.182 93.7271 199.18 93.7271 181.909C93.7271 164.637 125 127.182 125 127.182C125 127.182 156.273 164.637 156.273 181.909Z" fill="#009245"/>
<path d="M125 127.182L140.636 150.636L125 170.182L109.364 150.636L125 127.182Z" fill="#D9E021"/>
<path d="M152.363 170.182L125 197.545V170.182L144.545 150.636L152.363 170.182Z" fill="#8CC63F"/>
<path d="M97.6362 170.182L125 197.545V170.182L105.454 150.636L97.6362 170.182Z" fill="#8CC63F"/>
<path d="M199.273 178C199.273 219.02 166.02 252.273 125 252.273L144.546 275.728L125 299.182C191.927 299.182 246.182 244.927 246.182 178L222.728 158.454L199.273 178Z" fill="#009245"/>
<path d="M125 103.727C166.02 103.727 199.273 136.98 199.273 178L222.728 158.454L246.182 178C246.182 111.073 191.927 56.8179 125 56.8179L105.454 80.2725L125 103.727Z" fill="#39B54A"/>
<path d="M50.727 178C50.727 136.98 83.9805 103.727 125 103.727L105.454 80.2725L125 56.8179C58.0727 56.8179 3.81787 111.073 3.81787 178L27.2725 197.546L50.727 178Z" fill="#8CC63F"/>
<path d="M125 252.273C83.9805 252.273 50.7271 219.02 50.7271 178L27.2725 197.546L3.81787 178C3.81787 244.927 58.0732 299.182 125 299.182L144.546 275.728L125 252.273Z" fill="#D9E021"/>
<path d="M109.364 252.366L128.909 275.781L109.364 299.196H125L144.545 275.781L125 252.366H109.364Z" fill="#8CC63F"/>
<path d="M199.366 193.636L222.781 174.091L246.196 193.636V178L222.781 158.454L199.366 178V193.636Z" fill="#D9E021"/>
<path d="M140.636 103.729L121.091 80.3135L140.636 56.8979H125L105.454 80.3135L125 103.729H140.636Z" fill="#009245"/>
<path d="M50.729 162.364L27.3135 181.909L3.89795 162.364V178L27.3135 197.545L50.729 178V162.364Z" fill="#39B54A"/>
<path d="M213.389 89.6113C189.779 66.002 158.389 53 125 53C91.6113 53 60.2212 66.002 36.6113 89.6113C13.002 113.221 0 144.611 0 178C0 211.389 13.002 242.779 36.6113 266.389C60.2207 289.998 91.6113 303 125 303C158.389 303 189.779 289.998 213.389 266.389C236.998 242.779 250 211.389 250 178C250 144.611 236.998 113.221 213.389 89.6113ZM242.067 169.601L222.728 153.485L202.7 170.175C198.821 131.365 166.408 100.837 126.807 99.9326L110.424 80.2725L126.77 60.6567C157.457 61.1079 186.24 73.2612 207.989 95.0103C228.165 115.187 240.086 141.415 242.067 169.601ZM125 248.456C86.1509 248.456 54.5444 216.85 54.5444 178C54.5444 139.15 86.1509 107.544 125 107.544C163.849 107.544 195.456 139.151 195.456 178C195.456 216.849 163.849 248.456 125 248.456ZM42.0107 95.0107C62.1865 74.8354 88.415 62.9136 116.601 60.9331L100.485 80.272L117.175 100.3C78.3652 104.179 47.8369 136.592 46.9326 176.193L27.2725 192.576L7.65674 176.23C8.10791 145.543 20.2612 116.76 42.0107 95.0107ZM7.93311 186.399L27.272 202.515L47.2998 185.825C51.1792 224.635 83.5918 255.163 123.193 256.068L139.576 275.728L123.23 295.343C92.543 294.892 63.7598 282.739 42.0107 260.99C21.835 240.813 9.91357 214.585 7.93311 186.399ZM207.989 260.989C187.813 281.165 161.585 293.086 133.399 295.067L149.515 275.728L132.825 255.7C171.635 251.821 202.163 219.408 203.068 179.807L222.728 163.424L242.343 179.77C241.892 210.457 229.739 239.24 207.989 260.989Z" fill="black"/>
<path d="M160.09 181.909C160.09 163.776 131.222 128.677 127.93 124.735L125 121.225L122.069 124.735C118.778 128.677 89.9092 163.776 89.9092 181.909C89.9092 199.896 103.516 214.757 120.975 216.762V228.95H128.61V216.814C146.27 215.001 160.09 200.039 160.09 181.909ZM128.61 137.882C131.647 141.875 135.051 146.568 138.321 151.462L128.61 161.173V137.882ZM120.975 160.758L111.681 151.463C114.801 146.793 118.046 142.301 120.975 138.429V160.758ZM120.975 171.556V188.122L101.563 168.71C103.201 165.3 105.23 161.681 107.461 158.042L120.975 171.556ZM128.61 171.971L142.541 158.04C144.772 161.679 146.801 165.298 148.438 168.708L128.61 188.537V171.971ZM97.5449 181.909C97.5449 180.306 97.8867 178.454 98.4844 176.43L120.974 198.919V209.066C107.738 207.113 97.5449 195.681 97.5449 181.909ZM128.61 209.119V199.334L151.516 176.429C152.113 178.453 152.455 180.306 152.455 181.909C152.455 195.823 142.048 207.345 128.61 209.119Z" fill="black"/>
</g>
<path d="M51.792 24.1899V7.11719H57.7734V24.1899C57.7734 25.8534 57.3918 27.2946 56.6284 28.5137C55.8765 29.7327 54.8511 30.6784 53.5522 31.3506C52.2648 32.0114 50.8179 32.3418 49.2114 32.3418C47.548 32.3418 46.0669 32.0627 44.7681 31.5044C43.4806 30.9461 42.4666 30.0859 41.7261 28.9238C40.9969 27.7617 40.6323 26.2806 40.6323 24.4805H46.6479C46.6479 25.3236 46.7448 25.9844 46.9385 26.4629C47.1322 26.93 47.417 27.2604 47.793 27.4541C48.1803 27.6364 48.6532 27.7275 49.2114 27.7275C49.7583 27.7275 50.2197 27.5908 50.5957 27.3174C50.9831 27.0326 51.2793 26.6281 51.4844 26.104C51.6895 25.5685 51.792 24.9305 51.792 24.1899Z" fill="#2D9F23"/>
<path d="M75.0854 7.11719H81.084V23.3696C81.084 25.3065 80.6795 26.9471 79.8706 28.2915C79.0617 29.6245 77.9281 30.6328 76.4697 31.3164C75.0114 32 73.2967 32.3418 71.3257 32.3418C69.3774 32.3418 67.6628 32 66.1816 31.3164C64.7119 30.6328 63.5612 29.6245 62.7295 28.2915C61.9092 26.9471 61.499 25.3065 61.499 23.3696V7.11719H67.5146V23.3696C67.5146 24.395 67.6628 25.2324 67.959 25.8818C68.2552 26.5199 68.6882 26.987 69.2578 27.2832C69.8275 27.5794 70.5168 27.7275 71.3257 27.7275C72.146 27.7275 72.8353 27.5794 73.3936 27.2832C73.9518 26.987 74.3734 26.5199 74.6582 25.8818C74.943 25.2324 75.0854 24.395 75.0854 23.3696V7.11719Z" fill="#D9E021"/>
<path d="M95.0293 12.3467L88.9624 32H82.5195L91.6626 7.11719H95.7471L95.0293 12.3467ZM100.054 32L93.9697 12.3467L93.1836 7.11719H97.3193L106.514 32H100.054ZM99.8145 22.7202V27.3516H87.0483V22.7202H99.8145Z" fill="#8CC63F"/>
<path d="M122.117 23.5747H128.098C128.018 25.3065 127.551 26.8332 126.697 28.1548C125.842 29.4764 124.657 30.5075 123.142 31.248C121.638 31.9772 119.861 32.3418 117.81 32.3418C116.147 32.3418 114.66 32.0627 113.35 31.5044C112.051 30.9461 110.946 30.1429 110.034 29.0947C109.134 28.0465 108.445 26.7762 107.966 25.2837C107.499 23.7912 107.266 22.1107 107.266 20.2422V18.8921C107.266 17.0236 107.511 15.3431 108 13.8506C108.502 12.3467 109.208 11.0706 110.12 10.0225C111.042 8.96289 112.148 8.15397 113.435 7.5957C114.722 7.03743 116.152 6.7583 117.725 6.7583C119.889 6.7583 121.718 7.14567 123.21 7.92041C124.703 8.69515 125.859 9.76042 126.68 11.1162C127.5 12.4606 127.984 13.993 128.132 15.7134H122.151C122.128 14.7791 121.969 13.9987 121.672 13.3721C121.376 12.734 120.909 12.2555 120.271 11.9365C119.633 11.6175 118.784 11.458 117.725 11.458C116.984 11.458 116.34 11.5947 115.793 11.8682C115.247 12.1416 114.791 12.5745 114.426 13.167C114.062 13.7594 113.788 14.5285 113.606 15.4741C113.435 16.4084 113.35 17.5363 113.35 18.8579V20.2422C113.35 21.5638 113.429 22.6917 113.589 23.626C113.748 24.5602 114.005 25.3236 114.358 25.916C114.711 26.5085 115.167 26.9471 115.725 27.2319C116.295 27.5054 116.99 27.6421 117.81 27.6421C118.722 27.6421 119.491 27.4997 120.117 27.2148C120.744 26.9186 121.228 26.4743 121.57 25.8818C121.912 25.278 122.094 24.509 122.117 23.5747ZM129.944 22.9424V22.5835C129.944 21.2277 130.138 19.9801 130.525 18.8408C130.912 17.6901 131.482 16.6932 132.234 15.8501C132.986 15.007 133.914 14.3519 135.02 13.8848C136.125 13.4062 137.401 13.167 138.848 13.167C140.306 13.167 141.588 13.4062 142.693 13.8848C143.809 14.3519 144.744 15.007 145.496 15.8501C146.248 16.6932 146.817 17.6901 147.205 18.8408C147.592 19.9801 147.786 21.2277 147.786 22.5835V22.9424C147.786 24.2868 147.592 25.5343 147.205 26.6851C146.817 27.8244 146.248 28.8213 145.496 29.6758C144.744 30.5189 143.815 31.174 142.71 31.6411C141.605 32.1082 140.329 32.3418 138.882 32.3418C137.435 32.3418 136.153 32.1082 135.037 31.6411C133.92 31.174 132.986 30.5189 132.234 29.6758C131.482 28.8213 130.912 27.8244 130.525 26.6851C130.138 25.5343 129.944 24.2868 129.944 22.9424ZM135.703 22.5835V22.9424C135.703 23.6374 135.754 24.2868 135.857 24.8906C135.959 25.4945 136.13 26.0243 136.37 26.48C136.609 26.9243 136.934 27.2718 137.344 27.5225C137.754 27.7731 138.267 27.8984 138.882 27.8984C139.486 27.8984 139.987 27.7731 140.386 27.5225C140.796 27.2718 141.121 26.9243 141.36 26.48C141.599 26.0243 141.77 25.4945 141.873 24.8906C141.975 24.2868 142.026 23.6374 142.026 22.9424V22.5835C142.026 21.9113 141.975 21.279 141.873 20.6865C141.77 20.0827 141.599 19.5529 141.36 19.0972C141.121 18.63 140.796 18.2655 140.386 18.0034C139.976 17.7414 139.463 17.6104 138.848 17.6104C138.244 17.6104 137.737 17.7414 137.327 18.0034C136.928 18.2655 136.609 18.63 136.37 19.0972C136.13 19.5529 135.959 20.0827 135.857 20.6865C135.754 21.279 135.703 21.9113 135.703 22.5835ZM156.433 5.75V32H150.657V5.75H156.433ZM168.943 32.3418C167.439 32.3418 166.095 32.1082 164.91 31.6411C163.725 31.1626 162.722 30.5075 161.902 29.6758C161.093 28.8441 160.472 27.887 160.039 26.8047C159.618 25.7223 159.407 24.5773 159.407 23.3696V22.7202C159.407 21.3644 159.595 20.1112 159.971 18.9604C160.347 17.7983 160.905 16.7843 161.646 15.9185C162.386 15.0526 163.315 14.3804 164.431 13.9019C165.548 13.4119 166.847 13.167 168.328 13.167C169.638 13.167 170.811 13.3778 171.848 13.7993C172.885 14.2209 173.762 14.8247 174.48 15.6108C175.209 16.397 175.762 17.3483 176.138 18.4648C176.525 19.5814 176.719 20.8346 176.719 22.2246V24.5659H161.611V20.96H171.096V20.5156C171.108 19.9004 170.999 19.3763 170.771 18.9434C170.555 18.5104 170.236 18.18 169.814 17.9521C169.393 17.7243 168.88 17.6104 168.276 17.6104C167.65 17.6104 167.131 17.7471 166.721 18.0205C166.322 18.2939 166.009 18.6699 165.781 19.1484C165.565 19.6156 165.411 20.1567 165.32 20.772C165.229 21.3872 165.183 22.0366 165.183 22.7202V23.3696C165.183 24.0532 165.274 24.6742 165.457 25.2324C165.65 25.7907 165.924 26.2692 166.277 26.668C166.641 27.0553 167.074 27.3573 167.576 27.5737C168.088 27.7902 168.669 27.8984 169.319 27.8984C170.105 27.8984 170.88 27.7503 171.643 27.4541C172.406 27.1579 173.062 26.668 173.608 25.9844L176.223 29.0947C175.847 29.6302 175.312 30.1486 174.617 30.6499C173.933 31.1512 173.113 31.5614 172.156 31.8804C171.199 32.188 170.128 32.3418 168.943 32.3418ZM188.801 13.5088V17.5078H177.659V13.5088H188.801ZM180 8.91162H185.759V25.9673C185.759 26.4572 185.816 26.8389 185.93 27.1123C186.044 27.3743 186.238 27.5623 186.511 27.6763C186.796 27.7788 187.172 27.8301 187.639 27.8301C187.97 27.8301 188.243 27.8244 188.459 27.813C188.676 27.7902 188.881 27.7617 189.075 27.7275V31.8462C188.585 32.0057 188.072 32.1253 187.537 32.2051C187.001 32.2962 186.431 32.3418 185.828 32.3418C184.597 32.3418 183.543 32.1481 182.666 31.7607C181.8 31.3734 181.139 30.7638 180.684 29.9321C180.228 29.1004 180 28.0181 180 26.6851V8.91162ZM200.696 27.3516V19.7295C200.696 19.2054 200.622 18.7554 200.474 18.3794C200.326 18.0034 200.092 17.7129 199.773 17.5078C199.454 17.2913 199.027 17.1831 198.491 17.1831C198.058 17.1831 197.688 17.2572 197.38 17.4053C197.073 17.5534 196.839 17.7756 196.68 18.0718C196.52 18.368 196.44 18.744 196.44 19.1997H190.681C190.681 18.3452 190.869 17.5534 191.245 16.8242C191.632 16.0837 192.179 15.4399 192.886 14.8931C193.604 14.3462 194.458 13.9246 195.449 13.6284C196.452 13.3208 197.568 13.167 198.799 13.167C200.269 13.167 201.579 13.4119 202.729 13.9019C203.892 14.3918 204.809 15.1266 205.481 16.1064C206.153 17.0749 206.489 18.2939 206.489 19.7637V27.3345C206.489 28.5422 206.558 29.4593 206.694 30.0859C206.831 30.7012 207.025 31.2424 207.275 31.7095V32H201.499C201.226 31.4303 201.021 30.7354 200.884 29.915C200.758 29.0833 200.696 28.2288 200.696 27.3516ZM201.396 20.7036L201.431 23.7798H198.884C198.349 23.7798 197.893 23.8538 197.517 24.002C197.153 24.1501 196.856 24.3551 196.628 24.6172C196.412 24.8678 196.252 25.1527 196.15 25.4717C196.059 25.7907 196.013 26.1268 196.013 26.48C196.013 26.8218 196.093 27.1294 196.252 27.4028C196.423 27.6649 196.651 27.87 196.936 28.0181C197.221 28.1662 197.54 28.2402 197.893 28.2402C198.531 28.2402 199.072 28.1206 199.517 27.8813C199.972 27.6307 200.32 27.3288 200.559 26.9756C200.798 26.6224 200.918 26.292 200.918 25.9844L202.183 28.3428C201.955 28.7985 201.693 29.2599 201.396 29.7271C201.112 30.1942 200.753 30.6271 200.32 31.0259C199.898 31.4132 199.38 31.7323 198.765 31.9829C198.149 32.2222 197.403 32.3418 196.526 32.3418C195.387 32.3418 194.338 32.1082 193.381 31.6411C192.436 31.174 191.678 30.5246 191.108 29.6929C190.539 28.8498 190.254 27.8813 190.254 26.7876C190.254 25.8306 190.425 24.9761 190.767 24.2241C191.12 23.4722 191.65 22.8341 192.356 22.3101C193.062 21.786 193.962 21.3872 195.056 21.1138C196.15 20.8403 197.437 20.7036 198.918 20.7036H201.396Z" fill="white"/>
<defs>
<clipPath id="clip0_27_6">
<rect width="250" height="250" fill="white" transform="translate(0 53)"/>
</clipPath>
</defs>
</svg>
