<svg width="500" height="493" viewBox="0 0 500 493" fill="none" xmlns="http://www.w3.org/2000/svg">
<g clip-path="url(#clip0_121_490)">
<path d="M538.785 161.873C497.719 102.262 435.898 62.2109 364.709 49.0967C293.52 35.9825 221.486 51.3751 161.873 92.4399C102.262 133.506 62.2109 195.327 49.0967 266.515C35.9825 337.704 51.3751 409.739 92.4399 469.351C133.505 528.962 195.327 569.014 266.515 582.128C337.704 595.242 409.739 579.849 469.351 538.785C528.962 497.72 569.014 435.898 582.128 364.709C595.242 293.52 579.848 221.486 538.785 161.873ZM568.512 343.686L533.609 301.729L484.352 329.447C491.324 245.176 434.207 167.355 350.128 149.873L322.919 101.52L365.476 66.1171C430.727 79.1321 487.323 116.35 525.152 171.264C560.244 222.207 575.36 282.812 568.512 343.686ZM287.939 465.832C205.108 450.573 150.133 370.771 165.392 287.939C180.651 205.107 260.454 150.133 343.285 165.392C426.117 180.651 481.091 260.454 465.832 343.285C450.573 426.117 370.77 481.091 287.939 465.832ZM171.265 106.073C222.206 70.9811 282.812 55.8641 343.686 62.7122L301.729 97.6153L329.447 146.872C245.176 139.9 167.355 197.017 149.873 281.096L101.52 308.306L66.1171 265.749C79.1319 200.499 116.35 143.903 171.265 106.073ZM62.7122 287.539L97.6152 329.495L146.872 301.778C139.9 386.049 197.017 463.869 281.096 481.353L308.306 529.705L265.749 565.107C200.498 552.092 143.902 514.875 106.073 459.961C70.9801 409.018 55.8641 348.413 62.7122 287.539ZM459.96 525.152C409.018 560.243 348.413 575.36 287.539 568.512L329.495 533.609L301.778 484.352C386.049 491.324 463.869 434.207 481.353 350.128L529.705 322.919L565.107 365.476C552.093 430.726 514.875 487.322 459.96 525.152Z" fill="#8CC63F" fill-opacity="0.29"/>
<path d="M388.894 337.728C396.016 299.068 348.251 212.894 342.781 203.195L337.912 194.56L330.285 200.893C321.719 208.006 246.381 271.503 239.259 310.163C232.194 348.515 255.368 385.545 291.805 396.676L287.018 422.662L303.297 425.661L308.064 399.786C346.428 402.858 381.773 376.385 388.894 337.728ZM339.067 231.493C343.974 241.201 349.388 252.544 354.437 264.262L329.919 281.153L339.067 231.493ZM313.803 277.269L297.638 253.801C306.124 245.069 314.807 236.767 322.573 229.661L313.803 277.269ZM309.562 300.291L303.055 335.612L269.292 286.599C274.123 279.973 279.87 273.052 286.056 266.169L309.562 300.291ZM325.678 304.175L360.853 279.944C364.179 288.579 367.084 297.093 369.236 305.007L319.172 339.495L325.678 304.175ZM255.539 313.162C256.169 309.745 257.625 305.931 259.695 301.849L298.812 358.634L294.827 380.268C267.372 370.904 250.13 342.526 255.539 313.162ZM311.087 383.38L314.931 362.517L372.764 322.676C373.243 327.228 373.243 331.312 372.614 334.729C367.149 364.397 340.434 384.876 311.087 383.38Z" fill="#8CC63F" fill-opacity="0.29"/>
</g>
<defs>
<clipPath id="clip0_121_490">
<rect width="542" height="542" fill="white" transform="translate(98.1935) rotate(10.4378)"/>
</clipPath>
</defs>
</svg>
