<svg width="56" height="56" viewBox="0 0 56 56" fill="none" xmlns="http://www.w3.org/2000/svg">
<g clip-path="url(#clip0_183_6)">
<path d="M28.2378 34.9151C32.9589 34.9151 36.786 31.0879 36.786 26.3668C36.786 21.6458 32.9589 17.8186 28.2378 17.8186C23.5167 17.8186 19.6896 21.6458 19.6896 26.3668C19.6896 31.0879 23.5167 34.9151 28.2378 34.9151Z" stroke="black" stroke-width="2.56447" stroke-linecap="round" stroke-linejoin="round"/>
<path d="M45.3343 9.27026H11.1413C10.1971 9.27026 9.4317 10.0357 9.4317 10.9799V45.1728C9.4317 46.117 10.1971 46.8825 11.1413 46.8825H45.3343C46.2785 46.8825 47.0439 46.117 47.0439 45.1728V10.9799C47.0439 10.0357 46.2785 9.27026 45.3343 9.27026Z" stroke="black" stroke-width="2.56447" stroke-linecap="round" stroke-linejoin="round"/>
<path d="M13.2314 46.8826C14.0026 43.4789 15.908 40.4386 18.6348 38.2605C21.3616 36.0824 24.7479 34.896 28.2378 34.896C31.7277 34.896 35.114 36.0824 37.8408 38.2605C40.5676 40.4386 42.473 43.4789 43.2442 46.8826" stroke="black" stroke-width="2.56447" stroke-linecap="round" stroke-linejoin="round"/>
</g>
<defs>
<clipPath id="clip0_183_6">
<rect x="0.883484" y="0.722168" width="54.7087" height="54.7087" rx="10" fill="white"/>
</clipPath>
</defs>
</svg>
