<svg width="86" height="80" viewBox="0 0 86 80" fill="none" xmlns="http://www.w3.org/2000/svg">
<path d="M35.1304 66H19.8596C15.3584 66 13.1077 66 11.3884 65.128C9.8761 64.3612 8.64655 63.1372 7.87602 61.632C7 59.9208 7 57.6804 7 53.2V22.8C7 18.3196 7 16.0794 7.87602 14.3681C8.64655 12.8628 9.8761 11.6389 11.3884 10.872C13.1077 10 15.3584 10 19.8596 10H66.4758C70.977 10 73.2279 10 74.947 10.872C76.4593 11.6389 77.6889 12.8628 78.4593 14.3681C79.3354 16.0794 79.3354 18.3196 79.3354 22.8V30M77.7549 23.0492L57.4334 36.534C52.2775 39.9552 49.6996 41.666 46.9131 42.3308C44.4504 42.918 41.8833 42.918 39.4211 42.3308C36.6346 41.666 34.0566 39.9552 28.9005 36.534L7.59259 22.3945M51.205 74L59.3427 72.38C60.052 72.2388 60.4068 72.168 60.7376 72.0388C61.0313 71.9244 61.3106 71.7756 61.569 71.596C61.8608 71.3936 62.1163 71.1392 62.6283 70.6296L79.3354 54C81.5549 51.7908 81.5549 48.2092 79.3354 46C77.1159 43.7908 73.5176 43.7908 71.2981 46L54.5911 62.6296C54.0791 63.1392 53.8235 63.3936 53.6202 63.684C53.4397 63.9412 53.2902 64.2192 53.1753 64.5116C53.0455 64.8408 52.9744 65.194 52.8325 65.9L51.205 74Z" stroke="#8CC63F" stroke-width="3" stroke-linecap="round" stroke-linejoin="round"/>
</svg>
