<svg width="227" height="50" viewBox="0 0 227 50" fill="none" xmlns="http://www.w3.org/2000/svg">
<path d="M69.792 29.1899V12.1172H75.7734V29.1899C75.7734 30.8534 75.3918 32.2946 74.6284 33.5137C73.8765 34.7327 72.8511 35.6784 71.5522 36.3506C70.2648 37.0114 68.8179 37.3418 67.2114 37.3418C65.548 37.3418 64.0669 37.0627 62.7681 36.5044C61.4806 35.9461 60.4666 35.0859 59.7261 33.9238C58.9969 32.7617 58.6323 31.2806 58.6323 29.4805H64.6479C64.6479 30.3236 64.7448 30.9844 64.9385 31.4629C65.1322 31.93 65.417 32.2604 65.793 32.4541C66.1803 32.6364 66.6532 32.7275 67.2114 32.7275C67.7583 32.7275 68.2197 32.5908 68.5957 32.3174C68.9831 32.0326 69.2793 31.6281 69.4844 31.104C69.6895 30.5685 69.792 29.9305 69.792 29.1899Z" fill="#2D9F23"/>
<path d="M93.0854 12.1172H99.084V28.3696C99.084 30.3065 98.6795 31.9471 97.8706 33.2915C97.0617 34.6245 95.9281 35.6328 94.4697 36.3164C93.0114 37 91.2967 37.3418 89.3257 37.3418C87.3774 37.3418 85.6628 37 84.1816 36.3164C82.7119 35.6328 81.5612 34.6245 80.7295 33.2915C79.9092 31.9471 79.499 30.3065 79.499 28.3696V12.1172H85.5146V28.3696C85.5146 29.395 85.6628 30.2324 85.959 30.8818C86.2552 31.5199 86.6882 31.987 87.2578 32.2832C87.8275 32.5794 88.5168 32.7275 89.3257 32.7275C90.146 32.7275 90.8353 32.5794 91.3936 32.2832C91.9518 31.987 92.3734 31.5199 92.6582 30.8818C92.943 30.2324 93.0854 29.395 93.0854 28.3696V12.1172Z" fill="#D9E021"/>
<path d="M113.029 17.3467L106.962 37H100.52L109.663 12.1172H113.747L113.029 17.3467ZM118.054 37L111.97 17.3467L111.184 12.1172H115.319L124.514 37H118.054ZM117.814 27.7202V32.3516H105.048V27.7202H117.814Z" fill="#8CC63F"/>
<path d="M140.117 28.5747H146.098C146.018 30.3065 145.551 31.8332 144.697 33.1548C143.842 34.4764 142.657 35.5075 141.142 36.248C139.638 36.9772 137.861 37.3418 135.81 37.3418C134.147 37.3418 132.66 37.0627 131.35 36.5044C130.051 35.9461 128.946 35.1429 128.034 34.0947C127.134 33.0465 126.445 31.7762 125.966 30.2837C125.499 28.7912 125.266 27.1107 125.266 25.2422V23.8921C125.266 22.0236 125.511 20.3431 126 18.8506C126.502 17.3467 127.208 16.0706 128.12 15.0225C129.042 13.9629 130.148 13.154 131.435 12.5957C132.722 12.0374 134.152 11.7583 135.725 11.7583C137.889 11.7583 139.718 12.1457 141.21 12.9204C142.703 13.6951 143.859 14.7604 144.68 16.1162C145.5 17.4606 145.984 18.993 146.132 20.7134H140.151C140.128 19.7791 139.969 18.9987 139.672 18.3721C139.376 17.734 138.909 17.2555 138.271 16.9365C137.633 16.6175 136.784 16.458 135.725 16.458C134.984 16.458 134.34 16.5947 133.793 16.8682C133.247 17.1416 132.791 17.5745 132.426 18.167C132.062 18.7594 131.788 19.5285 131.606 20.4741C131.435 21.4084 131.35 22.5363 131.35 23.8579V25.2422C131.35 26.5638 131.429 27.6917 131.589 28.626C131.748 29.5602 132.005 30.3236 132.358 30.916C132.711 31.5085 133.167 31.9471 133.725 32.2319C134.295 32.5054 134.99 32.6421 135.81 32.6421C136.722 32.6421 137.491 32.4997 138.117 32.2148C138.744 31.9186 139.228 31.4743 139.57 30.8818C139.912 30.278 140.094 29.509 140.117 28.5747ZM147.944 27.9424V27.5835C147.944 26.2277 148.138 24.9801 148.525 23.8408C148.912 22.6901 149.482 21.6932 150.234 20.8501C150.986 20.007 151.914 19.3519 153.02 18.8848C154.125 18.4062 155.401 18.167 156.848 18.167C158.306 18.167 159.588 18.4062 160.693 18.8848C161.809 19.3519 162.744 20.007 163.496 20.8501C164.248 21.6932 164.817 22.6901 165.205 23.8408C165.592 24.9801 165.786 26.2277 165.786 27.5835V27.9424C165.786 29.2868 165.592 30.5343 165.205 31.6851C164.817 32.8244 164.248 33.8213 163.496 34.6758C162.744 35.5189 161.815 36.174 160.71 36.6411C159.605 37.1082 158.329 37.3418 156.882 37.3418C155.435 37.3418 154.153 37.1082 153.037 36.6411C151.92 36.174 150.986 35.5189 150.234 34.6758C149.482 33.8213 148.912 32.8244 148.525 31.6851C148.138 30.5343 147.944 29.2868 147.944 27.9424ZM153.703 27.5835V27.9424C153.703 28.6374 153.754 29.2868 153.857 29.8906C153.959 30.4945 154.13 31.0243 154.37 31.48C154.609 31.9243 154.934 32.2718 155.344 32.5225C155.754 32.7731 156.267 32.8984 156.882 32.8984C157.486 32.8984 157.987 32.7731 158.386 32.5225C158.796 32.2718 159.121 31.9243 159.36 31.48C159.599 31.0243 159.77 30.4945 159.873 29.8906C159.975 29.2868 160.026 28.6374 160.026 27.9424V27.5835C160.026 26.9113 159.975 26.279 159.873 25.6865C159.77 25.0827 159.599 24.5529 159.36 24.0972C159.121 23.63 158.796 23.2655 158.386 23.0034C157.976 22.7414 157.463 22.6104 156.848 22.6104C156.244 22.6104 155.737 22.7414 155.327 23.0034C154.928 23.2655 154.609 23.63 154.37 24.0972C154.13 24.5529 153.959 25.0827 153.857 25.6865C153.754 26.279 153.703 26.9113 153.703 27.5835ZM174.433 10.75V37H168.657V10.75H174.433ZM186.943 37.3418C185.439 37.3418 184.095 37.1082 182.91 36.6411C181.725 36.1626 180.722 35.5075 179.902 34.6758C179.093 33.8441 178.472 32.887 178.039 31.8047C177.618 30.7223 177.407 29.5773 177.407 28.3696V27.7202C177.407 26.3644 177.595 25.1112 177.971 23.9604C178.347 22.7983 178.905 21.7843 179.646 20.9185C180.386 20.0526 181.315 19.3804 182.431 18.9019C183.548 18.4119 184.847 18.167 186.328 18.167C187.638 18.167 188.811 18.3778 189.848 18.7993C190.885 19.2209 191.762 19.8247 192.48 20.6108C193.209 21.397 193.762 22.3483 194.138 23.4648C194.525 24.5814 194.719 25.8346 194.719 27.2246V29.5659H179.611V25.96H189.096V25.5156C189.108 24.9004 188.999 24.3763 188.771 23.9434C188.555 23.5104 188.236 23.18 187.814 22.9521C187.393 22.7243 186.88 22.6104 186.276 22.6104C185.65 22.6104 185.131 22.7471 184.721 23.0205C184.322 23.2939 184.009 23.6699 183.781 24.1484C183.565 24.6156 183.411 25.1567 183.32 25.772C183.229 26.3872 183.183 27.0366 183.183 27.7202V28.3696C183.183 29.0532 183.274 29.6742 183.457 30.2324C183.65 30.7907 183.924 31.2692 184.277 31.668C184.641 32.0553 185.074 32.3573 185.576 32.5737C186.088 32.7902 186.669 32.8984 187.319 32.8984C188.105 32.8984 188.88 32.7503 189.643 32.4541C190.406 32.1579 191.062 31.668 191.608 30.9844L194.223 34.0947C193.847 34.6302 193.312 35.1486 192.617 35.6499C191.933 36.1512 191.113 36.5614 190.156 36.8804C189.199 37.188 188.128 37.3418 186.943 37.3418ZM206.801 18.5088V22.5078H195.659V18.5088H206.801ZM198 13.9116H203.759V30.9673C203.759 31.4572 203.816 31.8389 203.93 32.1123C204.044 32.3743 204.238 32.5623 204.511 32.6763C204.796 32.7788 205.172 32.8301 205.639 32.8301C205.97 32.8301 206.243 32.8244 206.459 32.813C206.676 32.7902 206.881 32.7617 207.075 32.7275V36.8462C206.585 37.0057 206.072 37.1253 205.537 37.2051C205.001 37.2962 204.431 37.3418 203.828 37.3418C202.597 37.3418 201.543 37.1481 200.666 36.7607C199.8 36.3734 199.139 35.7638 198.684 34.9321C198.228 34.1004 198 33.0181 198 31.6851V13.9116ZM218.696 32.3516V24.7295C218.696 24.2054 218.622 23.7554 218.474 23.3794C218.326 23.0034 218.092 22.7129 217.773 22.5078C217.454 22.2913 217.027 22.1831 216.491 22.1831C216.058 22.1831 215.688 22.2572 215.38 22.4053C215.073 22.5534 214.839 22.7756 214.68 23.0718C214.52 23.368 214.44 23.744 214.44 24.1997H208.681C208.681 23.3452 208.869 22.5534 209.245 21.8242C209.632 21.0837 210.179 20.4399 210.886 19.8931C211.604 19.3462 212.458 18.9246 213.449 18.6284C214.452 18.3208 215.568 18.167 216.799 18.167C218.269 18.167 219.579 18.4119 220.729 18.9019C221.892 19.3918 222.809 20.1266 223.481 21.1064C224.153 22.0749 224.489 23.2939 224.489 24.7637V32.3345C224.489 33.5422 224.558 34.4593 224.694 35.0859C224.831 35.7012 225.025 36.2424 225.275 36.7095V37H219.499C219.226 36.4303 219.021 35.7354 218.884 34.915C218.758 34.0833 218.696 33.2288 218.696 32.3516ZM219.396 25.7036L219.431 28.7798H216.884C216.349 28.7798 215.893 28.8538 215.517 29.002C215.153 29.1501 214.856 29.3551 214.628 29.6172C214.412 29.8678 214.252 30.1527 214.15 30.4717C214.059 30.7907 214.013 31.1268 214.013 31.48C214.013 31.8218 214.093 32.1294 214.252 32.4028C214.423 32.6649 214.651 32.87 214.936 33.0181C215.221 33.1662 215.54 33.2402 215.893 33.2402C216.531 33.2402 217.072 33.1206 217.517 32.8813C217.972 32.6307 218.32 32.3288 218.559 31.9756C218.798 31.6224 218.918 31.292 218.918 30.9844L220.183 33.3428C219.955 33.7985 219.693 34.2599 219.396 34.7271C219.112 35.1942 218.753 35.6271 218.32 36.0259C217.898 36.4132 217.38 36.7323 216.765 36.9829C216.149 37.2222 215.403 37.3418 214.526 37.3418C213.387 37.3418 212.338 37.1082 211.381 36.6411C210.436 36.174 209.678 35.5246 209.108 34.6929C208.539 33.8498 208.254 32.8813 208.254 31.7876C208.254 30.8306 208.425 29.9761 208.767 29.2241C209.12 28.4722 209.65 27.8341 210.356 27.3101C211.062 26.786 211.962 26.3872 213.056 26.1138C214.15 25.8403 215.437 25.7036 216.918 25.7036H219.396Z" fill="white"/>
<g clip-path="url(#clip0_29_48)">
<path d="M31.2546 25.7817C31.2546 29.236 28.4543 32.0363 25 32.0363C21.5457 32.0363 18.7454 29.236 18.7454 25.7817C18.7454 22.3274 25 14.8363 25 14.8363C25 14.8363 31.2546 22.3274 31.2546 25.7817Z" fill="#009245"/>
<path d="M25 14.8363L28.1272 19.5273L25 23.4363L21.8727 19.5273L25 14.8363Z" fill="#D9E021"/>
<path d="M30.4727 23.4363L25 28.9091V23.4363L28.9091 19.5273L30.4727 23.4363Z" fill="#8CC63F"/>
<path d="M19.5272 23.4363L25 28.9091V23.4363L21.0908 19.5273L19.5272 23.4363Z" fill="#8CC63F"/>
<path d="M39.8546 25C39.8546 33.2039 33.204 39.8546 25 39.8546L28.9092 44.5455L25 49.2364C38.3854 49.2364 49.2364 38.3854 49.2364 25L44.5455 21.0908L39.8546 25Z" fill="#009245"/>
<path d="M25 10.1454C33.2039 10.1454 39.8546 16.7961 39.8546 25L44.5455 21.0908L49.2364 25C49.2364 11.6146 38.3854 0.76358 25 0.76358L21.0908 5.4545L25 10.1454Z" fill="#39B54A"/>
<path d="M10.1454 25C10.1454 16.7961 16.7961 10.1454 25 10.1454L21.0908 5.4545L25 0.76358C11.6145 0.76358 0.76355 11.6147 0.76355 25L5.45447 28.9092L10.1454 25Z" fill="#8CC63F"/>
<path d="M25 39.8546C16.7961 39.8546 10.1454 33.204 10.1454 25L5.45447 28.9092L0.76355 25C0.76355 38.3854 11.6146 49.2364 25 49.2364L28.9092 44.5455L25 39.8546Z" fill="#D9E021"/>
<path d="M21.8727 39.8731L25.7817 44.5562L21.8727 49.2393H25L28.9091 44.5562L25 39.8731H21.8727Z" fill="#8CC63F"/>
<path d="M39.8732 28.1272L44.5563 24.2182L49.2393 28.1272V25L44.5563 21.0908L39.8732 25V28.1272Z" fill="#D9E021"/>
<path d="M28.1272 10.1458L24.2182 5.46271L28.1272 0.779602H25L21.0908 5.46271L25 10.1458H28.1272Z" fill="#009245"/>
<path d="M10.1458 21.8727L5.46265 25.7817L0.779541 21.8727V25L5.46265 28.9091L10.1458 25V21.8727Z" fill="#39B54A"/>
<path d="M42.6777 7.32227C37.9558 2.60039 31.6777 0 25 0C18.3223 0 12.0442 2.60039 7.32227 7.32227C2.60039 12.0442 0 18.3223 0 25C0 31.6777 2.60039 37.9558 7.32227 42.6777C12.0441 47.3996 18.3223 50 25 50C31.6777 50 37.9558 47.3996 42.6777 42.6777C47.3996 37.9559 50 31.6777 50 25C50 18.3223 47.3995 12.0442 42.6777 7.32227ZM48.4134 23.3202L44.5456 20.0971L40.54 23.435C39.7642 15.673 33.2816 9.56738 25.3614 9.38652L22.0848 5.45449L25.354 1.53135C31.4914 1.62158 37.248 4.05225 41.5979 8.40205C45.633 12.4373 48.0173 17.683 48.4134 23.3202ZM25 39.0911C17.2302 39.0911 10.9089 32.7699 10.9089 25C10.9089 17.2301 17.2302 10.9089 25 10.9089C32.7698 10.9089 39.0911 17.2302 39.0911 25C39.0911 32.7698 32.7698 39.0911 25 39.0911ZM8.40215 8.40215C12.4373 4.36709 17.683 1.98271 23.3202 1.58662L20.0971 5.45439L23.435 9.45996C15.673 10.2358 9.56738 16.7184 9.38652 24.6386L5.45449 27.9152L1.53135 24.646C1.62158 18.5087 4.05225 12.7521 8.40215 8.40215ZM1.58662 26.6798L5.45439 29.9029L9.45996 26.565C10.2358 34.327 16.7184 40.4326 24.6386 40.6136L27.9152 44.5455L24.646 48.4687C18.5086 48.3784 12.752 45.9478 8.40215 41.5979C4.36699 37.5627 1.98271 32.317 1.58662 26.6798ZM41.5979 41.5979C37.5627 45.6329 32.317 48.0173 26.6798 48.4134L29.9029 44.5456L26.565 40.54C34.327 39.7642 40.4326 33.2816 40.6136 25.3614L44.5455 22.0848L48.4687 25.354C48.3784 31.4913 45.9478 37.248 41.5979 41.5979Z" fill="black"/>
<path d="M32.018 25.7817C32.018 22.1553 26.2444 15.1355 25.586 14.347L25 13.6449L24.4138 14.347C23.7555 15.1355 17.9818 22.1553 17.9818 25.7817C17.9818 29.3793 20.7031 32.3515 24.1949 32.7523V35.1899H25.7219V32.7628C29.2539 32.4003 32.018 29.4078 32.018 25.7817ZM25.722 16.9764C26.3295 17.7751 27.0102 18.7137 27.6641 19.6924L25.722 21.6346V16.9764ZM24.195 21.5516L22.3362 19.6927C22.9601 18.7586 23.6092 17.8603 24.195 17.0858V21.5516ZM24.195 23.7111V27.0243L20.3127 23.142C20.6402 22.4601 21.046 21.7361 21.4922 21.0083L24.195 23.7111ZM25.722 23.7941L28.5083 21.0079C28.9544 21.7357 29.3602 22.4597 29.6877 23.1417L25.722 27.1073V23.7941ZM19.509 25.7817C19.509 25.4612 19.5773 25.0908 19.6969 24.6859L24.1948 29.1839V31.2133C21.5475 30.8226 19.509 28.5361 19.509 25.7817ZM25.722 31.2238V29.2668L30.3031 24.6857C30.4226 25.0906 30.4909 25.4612 30.4909 25.7817C30.491 28.5647 28.4095 30.869 25.722 31.2238Z" fill="black"/>
</g>
<defs>
<clipPath id="clip0_29_48">
<rect width="50" height="50" fill="white"/>
</clipPath>
</defs>
</svg>
