<svg width="18" height="18" viewBox="0 0 18 18" fill="none" xmlns="http://www.w3.org/2000/svg">
<g clip-path="url(#clip0_183_264)">
<path d="M6.51727 15.1875H3.375C3.22582 15.1875 3.08274 15.1282 2.97725 15.0227C2.87176 14.9172 2.8125 14.7742 2.8125 14.625V11.4827C2.81257 11.3337 2.87174 11.1908 2.97703 11.0854L11.648 2.4145C11.7534 2.30909 11.8965 2.24988 12.0456 2.24988C12.1947 2.24988 12.3377 2.30909 12.4432 2.4145L15.5855 5.55466C15.6909 5.66013 15.7501 5.80315 15.7501 5.95227C15.7501 6.10139 15.6909 6.24441 15.5855 6.34989L6.91453 15.0229C6.80912 15.1282 6.66625 15.1874 6.51727 15.1875Z" stroke="#8CC63F" stroke-width="0.84375" stroke-linecap="round" stroke-linejoin="round"/>
<path d="M9.5625 4.5L13.5 8.4375" stroke="#8CC63F" stroke-width="0.84375" stroke-linecap="round" stroke-linejoin="round"/>
</g>
<defs>
<clipPath id="clip0_183_264">
<rect width="18" height="18" fill="white"/>
</clipPath>
</defs>
</svg>
