<svg width="25" height="25" viewBox="0 0 25 25" fill="none" xmlns="http://www.w3.org/2000/svg">
<path d="M20.6611 6.58789H15.8322V18.179H11.6913C11.2882 17.2571 10.3679 16.6111 9.29912 16.6111C8.23034 16.6111 7.31009 17.2571 6.90713 18.179H2.24554V19.2207H6.68968C6.68973 20.6596 7.86034 21.8303 9.29922 21.8303C10.7381 21.8303 11.9089 20.6596 11.909 19.2207H17.8065C17.8066 20.6596 18.9774 21.8303 20.4163 21.8303C21.8551 21.8303 23.0257 20.6596 23.0258 19.2207H25V11.8248L20.6611 6.58789ZM9.29922 20.7886C8.43478 20.7886 7.73136 20.0852 7.73136 19.2205C7.73136 18.3561 8.43478 17.6527 9.29922 17.6527C10.1639 17.6527 10.8673 18.3561 10.8673 19.2205C10.8673 20.0852 10.1639 20.7886 9.29922 20.7886ZM20.4162 20.7886C19.5516 20.7886 18.8481 20.0852 18.8481 19.2205C18.8481 18.3561 19.5516 17.6527 20.4162 17.6527C21.2806 17.6527 21.9841 18.3561 21.9841 19.2205C21.9841 20.0852 21.2806 20.7886 20.4162 20.7886ZM23.9583 18.179H22.8082C22.4052 17.2571 21.4849 16.6111 20.4162 16.6111C19.3475 16.6111 18.4271 17.2571 18.024 18.179H16.8739V7.62957H20.1713L23.9583 12.2001V18.179Z" fill="black"/>
<path d="M17.674 8.74561V12.2884H22.8091L19.9644 8.74561H17.674ZM18.7156 11.2468V9.78729H19.4649L20.6368 11.2468H18.7156Z" fill="black"/>
<path d="M3.01133 16.2025H14.8161V4.91811H8.4802C7.60199 3.85107 6.27158 3.16943 4.7849 3.16943C2.14643 3.16948 0 5.31586 0 7.95413C0 9.96612 1.24842 11.6918 3.01133 12.3979V16.2025ZM13.7744 5.95979V15.1609H4.05296V12.6829C4.29163 12.7196 4.53607 12.7388 4.78485 12.7388C7.42316 12.7388 9.56949 10.5923 9.56949 7.95408C9.56949 7.2427 9.41316 6.56719 9.13352 5.95974L13.7744 5.95979ZM1.04168 7.95413C1.04168 5.8901 2.72092 4.21117 4.7849 4.21117C6.84888 4.21117 8.52786 5.89015 8.52786 7.95413C8.52786 10.0182 6.84888 11.6971 4.7849 11.6971C2.72092 11.6971 1.04168 10.0181 1.04168 7.95413Z" fill="black"/>
<path d="M6.66762 8.44788L5.30573 7.65466V5.00293H4.2641V8.25329L6.14318 9.34813L6.66762 8.44788Z" fill="black"/>
</svg>
