<svg width="29" height="19" viewBox="0 0 29 19" fill="none" xmlns="http://www.w3.org/2000/svg">
<path d="M4.05234 9.23984V16.009C4.05234 16.3533 4.33789 16.6389 4.68223 16.6389H6.79023C7.13457 17.949 8.31875 18.9148 9.72969 18.9148C11.1406 18.9148 12.3332 17.949 12.6691 16.6389H20.7904C21.1348 17.949 22.3189 18.9148 23.7299 18.9148C25.1408 18.9148 26.3334 17.949 26.6693 16.6389H28.2314C28.5758 16.6389 28.8613 16.3533 28.8613 16.009V10.0713C28.8613 9.93691 28.8193 9.81094 28.7437 9.71016L26.5602 6.62793C26.4426 6.45996 26.2494 6.35918 26.0479 6.35918H21.4959V4.37715C21.4959 4.03281 21.2104 3.74727 20.866 3.74727H9.25938C8.82266 1.65605 6.9666 0.0771484 4.74941 0.0771484C2.20469 0.0771484 0.138672 2.14316 0.138672 4.68789C0.138672 6.98906 1.84356 8.90391 4.05234 9.23984ZM9.72969 17.6551C8.74707 17.6551 7.94922 16.8572 7.94922 15.8746C7.94922 14.892 8.74707 14.0941 9.72969 14.0941C10.7123 14.0941 11.5102 14.892 11.5102 15.8746C11.5102 16.8572 10.7039 17.6551 9.72969 17.6551ZM23.7299 17.6551C22.7473 17.6551 21.9494 16.8572 21.9494 15.8746C21.9494 14.892 22.7473 14.0941 23.7299 14.0941C24.7125 14.0941 25.5104 14.892 25.5104 15.8746C25.5104 16.8572 24.7125 17.6551 23.7299 17.6551ZM27.6016 10.2812V10.382H24.175V7.62734H25.7203L27.6016 10.2812ZM22.9152 7.62734V11.0119C22.9152 11.3562 23.2008 11.6418 23.5451 11.6418H27.6016V15.3791H26.7281C26.493 13.9346 25.2332 12.8344 23.7299 12.8344C22.848 12.8344 22.0502 13.2123 21.4959 13.817V7.62734H22.9152ZM20.2361 15.3875H12.7279C12.4928 13.943 11.233 12.8428 9.72969 12.8428C8.22637 12.8428 6.9666 13.943 6.73145 15.3875H5.31211V9.26504C7.48731 8.99629 9.19219 7.21582 9.34336 5.01543H20.2361V15.3875ZM4.74941 1.34531C6.59707 1.34531 8.10039 2.84863 8.10039 4.69629C8.10039 6.54395 6.59707 8.04727 4.74941 8.04727C2.90176 8.04727 1.39844 6.54395 1.39844 4.69629C1.39844 2.84863 2.90176 1.34531 4.74941 1.34531Z" fill="black"/>
<path d="M3.90957 6.12417C4.02715 6.24175 4.18672 6.30894 4.35469 6.30894C4.52266 6.30894 4.68223 6.24175 4.7998 6.12417L6.77344 4.15054C7.01699 3.90698 7.01699 3.50386 6.77344 3.2603C6.52988 3.01675 6.12676 3.01675 5.8832 3.2603L4.35469 4.78882L3.61562 4.04976C3.37207 3.8062 2.96895 3.8062 2.72539 4.04976C2.48184 4.29331 2.48184 4.69644 2.72539 4.93999L3.90957 6.12417Z" fill="black"/>
</svg>
