<svg width="23" height="23" viewBox="0 0 23 23" fill="none" xmlns="http://www.w3.org/2000/svg">
<g clip-path="url(#clip0_244_115)">
<path d="M18.882 4.59814H4.03199C3.6592 4.59814 3.35699 4.90035 3.35699 5.27314V17.4231C3.35699 17.7959 3.6592 18.0981 4.03199 18.0981H18.882C19.2548 18.0981 19.557 17.7959 19.557 17.4231V5.27314C19.557 4.90035 19.2548 4.59814 18.882 4.59814Z" stroke="black" stroke-width="2" stroke-linecap="round" stroke-linejoin="round"/>
<path d="M13.8195 9.82959C14.2854 9.82959 14.6632 9.45183 14.6632 8.98584C14.6632 8.51985 14.2854 8.14209 13.8195 8.14209C13.3535 8.14209 12.9757 8.51985 12.9757 8.98584C12.9757 9.45183 13.3535 9.82959 13.8195 9.82959Z" fill="black"/>
<path d="M13.0862 14.386L15.2538 12.221C15.3804 12.0945 15.552 12.0234 15.731 12.0234C15.9099 12.0234 16.0815 12.0945 16.2081 12.221L19.557 15.5724" stroke="black" stroke-width="2" stroke-linecap="round" stroke-linejoin="round"/>
<path d="M3.35699 14.7813L7.94193 10.1955C8.00462 10.1328 8.07907 10.083 8.16101 10.049C8.24295 10.015 8.33079 9.99756 8.4195 9.99756C8.5082 9.99756 8.59604 10.015 8.67798 10.049C8.75992 10.083 8.83437 10.1328 8.89706 10.1955L16.7988 18.0981" stroke="black" stroke-width="2" stroke-linecap="round" stroke-linejoin="round"/>
</g>
<defs>
<clipPath id="clip0_244_115">
<rect x="0.656982" y="0.54834" width="21.6" height="21.6" rx="10.8" fill="white"/>
</clipPath>
</defs>
</svg>
