<svg width="150" height="150" viewBox="0 0 150 150" fill="none" xmlns="http://www.w3.org/2000/svg">
<rect width="150" height="150" rx="8.65" fill="#D9D9D9"/>
<g clip-path="url(#clip0_86_385)">
<path d="M105.023 47.6719H45.7266C44.238 47.6719 43.0312 48.8786 43.0312 50.3672V98.8828C43.0312 100.371 44.238 101.578 45.7266 101.578H105.023C106.512 101.578 107.719 100.371 107.719 98.8828V50.3672C107.719 48.8786 106.512 47.6719 105.023 47.6719Z" stroke="black" stroke-width="4.66289" stroke-linecap="round" stroke-linejoin="round"/>
<path d="M84.8086 68.5605C86.6693 68.5605 88.1777 67.0521 88.1777 65.1914C88.1777 63.3307 86.6693 61.8223 84.8086 61.8223C82.9479 61.8223 81.4395 63.3307 81.4395 65.1914C81.4395 67.0521 82.9479 68.5605 84.8086 68.5605Z" fill="black"/>
<path d="M81.8808 86.7539L90.5361 78.1086C91.0415 77.6036 91.7268 77.3198 92.4414 77.3198C93.1559 77.3198 93.8412 77.6036 94.3466 78.1086L107.719 91.4909" stroke="black" stroke-width="4.66289" stroke-linecap="round" stroke-linejoin="round"/>
<path d="M43.0312 88.3337L61.3392 70.0224C61.5895 69.7718 61.8867 69.573 62.2139 69.4374C62.5412 69.3017 62.8919 69.2319 63.2461 69.2319C63.6003 69.2319 63.951 69.3017 64.2782 69.4374C64.6054 69.573 64.9027 69.7718 65.153 70.0224L96.705 101.578" stroke="black" stroke-width="4.66289" stroke-linecap="round" stroke-linejoin="round"/>
</g>
<defs>
<clipPath id="clip0_86_385">
<rect x="32.25" y="31.5" width="86.25" height="86.25" rx="17.3" fill="white"/>
</clipPath>
</defs>
</svg>
