<svg width="27" height="27" viewBox="0 0 27 27" fill="none" xmlns="http://www.w3.org/2000/svg">
<path fill-rule="evenodd" clip-rule="evenodd" d="M13.2 2.2002C7.12801 2.2002 2.20001 7.1282 2.20001 13.2002C2.20001 19.2722 7.12801 24.2002 13.2 24.2002C19.272 24.2002 24.2 19.2722 24.2 13.2002C24.2 7.1282 19.272 2.2002 13.2 2.2002ZM13.2 22.0002C8.34901 22.0002 4.40001 18.0512 4.40001 13.2002C4.40001 8.3492 8.34901 4.4002 13.2 4.4002C18.051 4.4002 22 8.3492 22 13.2002C22 18.0512 18.051 22.0002 13.2 22.0002ZM12.1 18.7002C12.1 18.0927 12.5925 17.6002 13.2 17.6002V17.6002C13.8075 17.6002 14.3 18.0927 14.3 18.7002V18.7002C14.3 19.3077 13.8075 19.8002 13.2 19.8002V19.8002C12.5925 19.8002 12.1 19.3077 12.1 18.7002V18.7002ZM13.871 6.6442C11.605 6.3142 9.60301 7.7112 8.99801 9.7132C8.80001 10.3512 9.28401 11.0002 9.95501 11.0002H10.175C10.626 11.0002 10.989 10.6812 11.143 10.2632C11.495 9.2842 12.54 8.6132 13.673 8.8552C14.718 9.0752 15.488 10.0982 15.4 11.1652C15.2903 12.6349 13.6277 12.9563 12.713 14.3212C12.7078 14.329 12.705 14.3385 12.6985 14.3452V14.3452C12.6934 14.3505 12.6924 14.3587 12.6887 14.365C12.6795 14.381 12.6702 14.3917 12.661 14.4102C12.562 14.5752 12.463 14.7622 12.386 14.9602C12.384 14.9662 12.3817 14.9718 12.3791 14.9772C12.356 15.0254 12.3369 15.0745 12.32 15.1252V15.1252C12.288 15.2159 12.2586 15.3111 12.2324 15.4112C12.0785 15.9989 12.5925 16.5002 13.2 16.5002V16.5002C13.8075 16.5002 14.2752 15.982 14.5466 15.4385C14.5661 15.3993 14.5866 15.3609 14.608 15.3232C14.63 15.2902 14.641 15.2572 14.663 15.2242C14.751 15.0702 14.861 14.9272 14.971 14.7952C14.982 14.7842 14.993 14.7622 15.004 14.7512C15.114 14.6192 15.235 14.4982 15.367 14.3772C16.423 13.3762 17.853 12.5622 17.556 10.4612C17.292 8.5472 15.785 6.9302 13.871 6.6442Z" fill="#8BC53E"/>
</svg>
