<svg width="19" height="19" viewBox="0 0 19 19" fill="none" xmlns="http://www.w3.org/2000/svg">
<path d="M2.64417 15.5481L4.14384 14.5481C5.2117 13.8361 6.46646 13.4561 7.74995 13.4561V13.4561C11.3398 13.4561 14.25 10.5459 14.25 6.95604V2.3746C14.25 1.06541 13.1844 0 11.875 0H2.375C1.06558 0 0 1.06541 0 2.3746V14.1321C0 14.7597 0.344375 15.3344 0.89775 15.6312C1.1495 15.7666 1.42579 15.8331 1.70129 15.8331C2.03063 15.8331 2.35917 15.7373 2.64417 15.5481ZM19 5.54074V17.2982C19 17.9259 18.6556 18.5005 18.1022 18.7974C17.8505 18.9327 17.5742 18.9992 17.2987 19C16.9694 19 16.6408 18.9042 16.3566 18.715L14.8562 17.7144C13.7883 17.0023 12.5335 16.6222 11.2499 16.6222H5.12488C4.91784 16.6222 4.75 16.4544 4.75 16.2473V16.2473C4.75 16.122 4.81261 16.005 4.91685 15.9355L5.71442 15.4034C6.07048 15.1659 6.48892 15.0392 6.91693 15.0392H9.89683C13.1755 15.0392 15.8333 12.3813 15.8333 9.10265V3.95781C15.8333 3.52058 16.1878 3.16614 16.625 3.16614V3.16614C17.9344 3.16614 19 4.23154 19 5.54074Z" fill="#8CC63F"/>
</svg>
