<svg width="22" height="22" viewBox="0 0 22 22" fill="none" xmlns="http://www.w3.org/2000/svg">
<path d="M8.25034 10.9995C11.2837 10.9995 13.7506 8.53289 13.7506 5.49977C13.7506 2.46665 11.2837 0 8.25034 0C5.21697 0 2.75011 2.46665 2.75011 5.49977C2.75011 8.53289 5.21697 10.9995 8.25034 10.9995ZM8.25034 1.83326C10.2726 1.83326 11.9172 3.47769 11.9172 5.49977C11.9172 7.52185 10.2726 9.16628 8.25034 9.16628C6.22809 9.16628 4.58352 7.52185 4.58352 5.49977C4.58352 3.47769 6.22809 1.83326 8.25034 1.83326ZM9.85503 14.8682C9.85474 14.8679 9.85436 14.8677 9.85395 14.8676C9.33346 14.7338 8.79373 14.6661 8.25034 14.6661C4.71186 14.6661 1.83341 17.5443 1.83341 21.0825C1.83341 21.5884 1.42273 21.9991 0.916705 21.9991C0.410684 21.9991 0 21.5884 0 21.0825C0 16.5341 3.70165 12.8328 8.25034 12.8328C8.94887 12.8328 9.64282 12.9199 10.3129 13.0931C10.8034 13.2196 11.0976 13.7192 10.972 14.2096C10.8465 14.6998 10.3491 14.994 9.85613 14.8688C9.85572 14.8687 9.85534 14.8685 9.85503 14.8682ZM21.1951 10.8886C20.1556 9.84917 18.3442 9.84917 17.3056 10.8886L11.1572 17.0365C10.4651 17.7285 10.0828 18.6497 10.0828 19.6296V21.0834C10.0828 21.5893 10.4935 22 10.9995 22H12.4534C13.4334 22 14.3538 21.6178 15.0459 20.9257L21.1942 14.7779C21.714 14.2582 22 13.5679 22 12.8328C22 12.0977 21.714 11.4074 21.1951 10.8886ZM19.898 13.4809L13.7487 19.6287C13.4031 19.9752 12.943 20.1658 12.4525 20.1658C12.1559 20.1658 11.9153 19.9253 11.9153 19.6287C11.9153 19.1392 12.106 18.6791 12.4525 18.3326L18.6018 12.1847C18.9474 11.8383 19.5515 11.8383 19.898 12.1847C20.0713 12.3571 20.1666 12.5871 20.1666 12.8328C20.1666 13.0785 20.0713 13.3076 19.898 13.4809Z" fill="#8CC63F"/>
</svg>
